G04*
G04 #@! TF.GenerationSoftware,Altium Limited,Altium Designer,23.2.1 (34)*
G04*
G04 Layer_Physical_Order=1*
G04 Layer_Color=255*
%FSLAX44Y44*%
%MOMM*%
G71*
G04*
G04 #@! TF.SameCoordinates,E44AF53E-CD2E-44FD-B6C0-48FBA89CA604*
G04*
G04*
G04 #@! TF.FilePolarity,Positive*
G04*
G01*
G75*
%ADD13R,3.0000X1.5000*%
%ADD17C,0.2540*%
%ADD18O,2.0000X3.0000*%
%ADD19R,2.0000X3.0000*%
D13*
X55600Y149050D02*
D03*
X100600Y161750D02*
D03*
X55600Y123650D02*
D03*
Y98250D02*
D03*
X100600Y136350D02*
D03*
Y110950D02*
D03*
D17*
X138430Y8890D02*
X146050Y16510D01*
X38100Y8890D02*
X138430D01*
X146050Y16510D02*
Y115570D01*
X27509Y19481D02*
X38100Y8890D01*
X31710Y81320D02*
Y144780D01*
X78100Y30000D02*
Y34930D01*
X31710Y81320D02*
X78100Y34930D01*
X126047Y135573D02*
X146050Y115570D01*
X107950Y135573D02*
X126047D01*
X27509Y19481D02*
Y29791D01*
X115570Y185420D02*
X120680Y180310D01*
Y165130D02*
Y180310D01*
X103446Y162372D02*
X117922D01*
X120680Y165130D01*
X36790Y122162D02*
X38278Y123650D01*
X36790Y89172D02*
Y112776D01*
X38278Y123650D02*
X50800D01*
X36790Y112776D02*
Y122162D01*
X36472Y149543D02*
X50800D01*
X26630Y170140D02*
X41910Y185420D01*
X115570D01*
X26630Y74286D02*
Y170140D01*
Y74286D02*
X52700Y48216D01*
Y30000D02*
Y48216D01*
X31710Y144780D02*
X36472Y149543D01*
X36790Y89172D02*
X65088Y60874D01*
X98026D01*
X128900Y30000D01*
D18*
X78100D02*
D03*
X52700D02*
D03*
X103500D02*
D03*
X128900D02*
D03*
D19*
X27300D02*
D03*
M02*
